<svg width="26" height="22" viewBox="0 0 26 22" fill="none" xmlns="http://www.w3.org/2000/svg">
    <path d="M21 5.649a90.403 90.403 0 0 0-8.907-.445c-1.76 0-3.52.09-5.28.267L5 5.65m4.889-.898.195-1.164c.143-.845.25-1.476 1.752-1.476h2.328c1.503 0 1.618.667 1.752 1.485l.195 1.155m2.978 3.707-.578 8.95c-.098 1.396-.178 2.48-2.658 2.48h-5.706c-2.48 0-2.56-1.084-2.658-2.48l-.578-8.95M11.516 15h2.96m-3.698-3.556h4.444" stroke="#F23345" stroke-width="1.5" stroke-linecap="round" stroke-linejoin="round"/>
</svg>
