<svg width="24" height="24" viewBox="0 0 24 24" fill="none" xmlns="http://www.w3.org/2000/svg">
    <path d="M10.937 2.472 6.04 10.075m-.596-7.603h13.112c1.093 0 1.987.866 1.987 1.925v2.117c0 .77-.497 1.733-.994 2.214l-4.271 3.657c-.596.481-.993 1.444-.993 2.213v4.139c0 .577-.398 1.347-.894 1.636L12 21.239c-1.291.77-3.08-.096-3.08-1.636v-5.1c0-.674-.397-1.54-.794-2.022L4.35 8.631c-.496-.48-.894-1.347-.894-1.924V4.493c0-1.155.894-2.02 1.987-2.02z" stroke="#888891" stroke-width="1.5" stroke-miterlimit="10" stroke-linecap="round" stroke-linejoin="round"/>
</svg>
