<svg width="18" height="24" viewBox="0 0 18 24" fill="none" xmlns="http://www.w3.org/2000/svg">
<path d="M13.1143 23.5H4.88571C1.77943 23.5 0 21.6493 0 18.4186V7.98838C0 4.61861 1.64571 2.90698 4.88571 2.90698C5.30743 2.90698 5.65714 3.2707 5.65714 3.70931C5.65714 4.13722 5.82171 4.54373 6.10971 4.84326C6.39771 5.1428 6.78857 5.31396 7.2 5.31396H10.8C11.6537 5.31396 12.3429 4.59722 12.3429 3.70931C12.3429 3.2707 12.6926 2.90698 13.1143 2.90698C16.3543 2.90698 18 4.61861 18 7.98838V18.4186C18 21.6493 16.2206 23.5 13.1143 23.5ZM4.21712 4.53303C2.59198 4.6721 1.54286 5.43163 1.54286 7.98838V18.4186C1.54286 20.7935 2.60229 21.8954 4.88571 21.8954H13.1143C15.3977 21.8954 16.4571 20.7935 16.4571 18.4186V7.98838C16.4571 5.43163 15.408 4.6828 13.7829 4.53303C13.4331 5.90233 12.2297 6.91861 10.8 6.91861H7.2C6.37714 6.91861 5.60572 6.58698 5.01943 5.97722C4.62857 5.5707 4.36112 5.07861 4.21712 4.53303Z" fill="#313135"/>
<path d="M10.8 6.9186H7.19997C6.37711 6.9186 5.60569 6.58698 5.0194 5.97721C4.43312 5.36743 4.11426 4.56512 4.11426 3.7093C4.11426 1.94419 5.50283 0.5 7.19997 0.5H10.8C11.6228 0.5 12.3943 0.831628 12.9805 1.4414C13.5668 2.05116 13.8857 2.85349 13.8857 3.7093C13.8857 5.47442 12.4971 6.9186 10.8 6.9186ZM7.19997 2.10465C6.34626 2.10465 5.65711 2.8214 5.65711 3.7093C5.65711 4.13721 5.82169 4.54372 6.10969 4.84326C6.39769 5.14279 6.78854 5.31395 7.19997 5.31395H10.8C11.6537 5.31395 12.3428 4.59721 12.3428 3.7093C12.3428 3.2814 12.1783 2.87488 11.8903 2.57535C11.6023 2.27581 11.2114 2.10465 10.8 2.10465H7.19997Z" fill="#313135"/>
<path d="M8.99997 13.872H4.88569C4.46397 13.872 4.11426 13.5083 4.11426 13.0697C4.11426 12.6311 4.46397 12.2673 4.88569 12.2673H8.99997C9.42169 12.2673 9.7714 12.6311 9.7714 13.0697C9.7714 13.5083 9.42169 13.872 8.99997 13.872Z" fill="#313135"/>
<path d="M13.1143 18.151H4.88569C4.46397 18.151 4.11426 17.7873 4.11426 17.3487C4.11426 16.9101 4.46397 16.5464 4.88569 16.5464H13.1143C13.536 16.5464 13.8857 16.9101 13.8857 17.3487C13.8857 17.7873 13.536 18.151 13.1143 18.151Z" fill="#313135"/>
</svg>
