<svg width="16" height="22" viewBox="0 0 16 22" fill="none" xmlns="http://www.w3.org/2000/svg">
<path d="M13.6344 7.66659H12.6761V5.74992C12.6761 3.10492 10.5294 0.958252 7.88444 0.958252C5.23944 0.958252 3.09277 3.10492 3.09277 5.74992V7.66659H2.13444C1.08027 7.66659 0.217773 8.52909 0.217773 9.58325V19.1666C0.217773 20.2208 1.08027 21.0833 2.13444 21.0833H13.6344C14.6886 21.0833 15.5511 20.2208 15.5511 19.1666V9.58325C15.5511 8.52909 14.6886 7.66659 13.6344 7.66659ZM7.88444 16.2916C6.83027 16.2916 5.96777 15.4291 5.96777 14.3749C5.96777 13.3208 6.83027 12.4583 7.88444 12.4583C8.93861 12.4583 9.80111 13.3208 9.80111 14.3749C9.80111 15.4291 8.93861 16.2916 7.88444 16.2916ZM10.8553 7.66659H4.91361V5.74992C4.91361 4.11117 6.24569 2.77909 7.88444 2.77909C9.52319 2.77909 10.8553 4.11117 10.8553 5.74992V7.66659Z" fill="#606060"/>
</svg>
