<svg width="20" height="20" viewBox="0 0 20 20" fill="none" xmlns="http://www.w3.org/2000/svg">
<path d="M9.98361 0.675293C4.53438 0.675293 0.111816 4.78196 0.111816 9.84196C0.111816 14.902 4.53438 19.0086 9.98361 19.0086H14.9195V17.1753H9.98361C5.69925 17.1753 2.08618 13.8203 2.08618 9.84196C2.08618 5.86363 5.69925 2.50863 9.98361 2.50863C14.268 2.50863 17.881 5.86363 17.881 9.84196V11.1528C17.881 11.877 17.1801 12.592 16.4003 12.592C15.6204 12.592 14.9195 11.877 14.9195 11.1528V9.84196C14.9195 7.31196 12.7082 5.25863 9.98361 5.25863C7.259 5.25863 5.04771 7.31196 5.04771 9.84196C5.04771 12.372 7.259 14.4253 9.98361 14.4253C11.3459 14.4253 12.5898 13.912 13.4782 13.0778C14.1199 13.8936 15.2255 14.4253 16.4003 14.4253C18.345 14.4253 19.8554 12.9586 19.8554 11.1528V9.84196C19.8554 4.78196 15.4328 0.675293 9.98361 0.675293ZM9.98361 12.592C8.34489 12.592 7.02207 11.3636 7.02207 9.84196C7.02207 8.32029 8.34489 7.09196 9.98361 7.09196C11.6223 7.09196 12.9451 8.32029 12.9451 9.84196C12.9451 11.3636 11.6223 12.592 9.98361 12.592Z" fill="#606060"/>
</svg>
